# Blender v2.80 (sub 75) OBJ File: ''
# www.blender.org
mtllib road.mtl
o road
v 2.077445 0.054787 -4.365420
v -2.085755 0.054787 -4.365421
v -2.085756 0.054785 4.365419
v 2.077445 0.054785 4.365420
v 2.077445 0.291940 -4.365418
v 2.077444 0.291938 4.365422
v -2.085756 0.291938 4.365418
v -2.085756 0.291940 -4.365420
vt 0.460600 1.000000
vt 0.921300 0.000000
vt 0.921300 1.000000
vt 0.000000 1.000000
vt 0.460600 0.000000
vt 0.460600 1.000000
vt 0.947500 0.000000
vt 0.973800 1.000000
vt 0.947500 1.000000
vt 0.973800 0.476800
vt 1.000000 0.953700
vt 0.973800 0.953700
vt 0.947500 1.000000
vt 0.921300 0.000000
vt 0.947500 0.000000
vt 0.973800 0.476800
vt 1.000000 0.000000
vt 1.000000 0.476800
vt 0.460600 0.000000
vt 0.000000 0.000000
vt 0.973800 0.000000
vt 1.000000 0.476800
vt 0.921300 1.000000
vt 0.973800 0.000000
vn -0.0000 1.0000 0.0000
vn 0.0000 -1.0000 -0.0000
vn -1.0000 -0.0000 -0.0000
vn 0.0000 -0.0000 -1.0000
vn 1.0000 0.0000 0.0000
vn -0.0000 -0.0000 1.0000
usemtl road
s 1
f 2/1/1 4/2/1 1/3/1
f 5/4/2 7/5/2 8/6/2
f 4/7/3 5/8/3 1/9/3
f 3/10/4 6/11/4 4/12/4
f 2/13/5 7/14/5 3/15/5
f 5/16/6 2/17/6 1/18/6
f 2/1/1 3/19/1 4/2/1
f 5/4/2 6/20/2 7/5/2
f 4/7/3 6/21/3 5/8/3
f 3/10/4 7/22/4 6/11/4
f 2/13/5 8/23/5 7/14/5
f 5/16/6 8/24/6 2/17/6
